<?xml version="1.0" encoding="UTF-8" standalone="no"?>
<!DOCTYPE svg PUBLIC "-//W3C//DTD SVG 1.1//EN"
 "http://www.w3.org/Graphics/SVG/1.1/DTD/svg11.dtd">
<!-- Generated by graphviz version 2.38.0 (20140413.2041)
 -->
<!-- Title: G Pages: 1 -->
<svg width="225pt" height="556pt"
 viewBox="0.00 0.00 225.00 556.00" xmlns="http://www.w3.org/2000/svg" xmlns:xlink="http://www.w3.org/1999/xlink">
<g id="graph0" class="graph" transform="scale(1 1) rotate(0) translate(4 552)">
<title>G</title>
<polygon fill="white" stroke="none" points="-4,4 -4,-552 221,-552 221,4 -4,4"/>
<!-- 2726770507112 -->
<g id="node1" class="node"><title>2726770507112</title>
<polygon fill="none" stroke="black" points="45.5,-511.5 45.5,-547.5 171.5,-547.5 171.5,-511.5 45.5,-511.5"/>
<text text-anchor="middle" x="108.5" y="-525.8" font-family="Times New Roman,serif" font-size="14.00">input_1: InputLayer</text>
</g>
<!-- 2726770507224 -->
<g id="node2" class="node"><title>2726770507224</title>
<polygon fill="none" stroke="black" points="0,-438.5 0,-474.5 217,-474.5 217,-438.5 0,-438.5"/>
<text text-anchor="middle" x="108.5" y="-452.8" font-family="Times New Roman,serif" font-size="14.00">zero_padding2d_1: ZeroPadding2D</text>
</g>
<!-- 2726770507112&#45;&gt;2726770507224 -->
<g id="edge1" class="edge"><title>2726770507112&#45;&gt;2726770507224</title>
<path fill="none" stroke="black" d="M108.5,-511.313C108.5,-503.289 108.5,-493.547 108.5,-484.569"/>
<polygon fill="black" stroke="black" points="112,-484.529 108.5,-474.529 105,-484.529 112,-484.529"/>
</g>
<!-- 2726770505656 -->
<g id="node3" class="node"><title>2726770505656</title>
<polygon fill="none" stroke="black" points="56,-365.5 56,-401.5 161,-401.5 161,-365.5 56,-365.5"/>
<text text-anchor="middle" x="108.5" y="-379.8" font-family="Times New Roman,serif" font-size="14.00">conv0: Conv2D</text>
</g>
<!-- 2726770507224&#45;&gt;2726770505656 -->
<g id="edge2" class="edge"><title>2726770507224&#45;&gt;2726770505656</title>
<path fill="none" stroke="black" d="M108.5,-438.313C108.5,-430.289 108.5,-420.547 108.5,-411.569"/>
<polygon fill="black" stroke="black" points="112,-411.529 108.5,-401.529 105,-411.529 112,-411.529"/>
</g>
<!-- 2727223745504 -->
<g id="node4" class="node"><title>2727223745504</title>
<polygon fill="none" stroke="black" points="31.5,-292.5 31.5,-328.5 185.5,-328.5 185.5,-292.5 31.5,-292.5"/>
<text text-anchor="middle" x="108.5" y="-306.8" font-family="Times New Roman,serif" font-size="14.00">bn0: BatchNormalization</text>
</g>
<!-- 2726770505656&#45;&gt;2727223745504 -->
<g id="edge3" class="edge"><title>2726770505656&#45;&gt;2727223745504</title>
<path fill="none" stroke="black" d="M108.5,-365.313C108.5,-357.289 108.5,-347.547 108.5,-338.569"/>
<polygon fill="black" stroke="black" points="112,-338.529 108.5,-328.529 105,-338.529 112,-338.529"/>
</g>
<!-- 2727223745952 -->
<g id="node5" class="node"><title>2727223745952</title>
<polygon fill="none" stroke="black" points="34.5,-219.5 34.5,-255.5 182.5,-255.5 182.5,-219.5 34.5,-219.5"/>
<text text-anchor="middle" x="108.5" y="-233.8" font-family="Times New Roman,serif" font-size="14.00">activation_1: Activation</text>
</g>
<!-- 2727223745504&#45;&gt;2727223745952 -->
<g id="edge4" class="edge"><title>2727223745504&#45;&gt;2727223745952</title>
<path fill="none" stroke="black" d="M108.5,-292.313C108.5,-284.289 108.5,-274.547 108.5,-265.569"/>
<polygon fill="black" stroke="black" points="112,-265.529 108.5,-255.529 105,-265.529 112,-265.529"/>
</g>
<!-- 2727223746008 -->
<g id="node6" class="node"><title>2727223746008</title>
<polygon fill="none" stroke="black" points="26.5,-146.5 26.5,-182.5 190.5,-182.5 190.5,-146.5 26.5,-146.5"/>
<text text-anchor="middle" x="108.5" y="-160.8" font-family="Times New Roman,serif" font-size="14.00">max_pool: MaxPooling2D</text>
</g>
<!-- 2727223745952&#45;&gt;2727223746008 -->
<g id="edge5" class="edge"><title>2727223745952&#45;&gt;2727223746008</title>
<path fill="none" stroke="black" d="M108.5,-219.313C108.5,-211.289 108.5,-201.547 108.5,-192.569"/>
<polygon fill="black" stroke="black" points="112,-192.529 108.5,-182.529 105,-192.529 112,-192.529"/>
</g>
<!-- 2727223746120 -->
<g id="node7" class="node"><title>2727223746120</title>
<polygon fill="none" stroke="black" points="54,-73.5 54,-109.5 163,-109.5 163,-73.5 54,-73.5"/>
<text text-anchor="middle" x="108.5" y="-87.8" font-family="Times New Roman,serif" font-size="14.00">flatten_1: Flatten</text>
</g>
<!-- 2727223746008&#45;&gt;2727223746120 -->
<g id="edge6" class="edge"><title>2727223746008&#45;&gt;2727223746120</title>
<path fill="none" stroke="black" d="M108.5,-146.313C108.5,-138.289 108.5,-128.547 108.5,-119.569"/>
<polygon fill="black" stroke="black" points="112,-119.529 108.5,-109.529 105,-119.529 112,-119.529"/>
</g>
<!-- 2727223746232 -->
<g id="node8" class="node"><title>2727223746232</title>
<polygon fill="none" stroke="black" points="74,-0.5 74,-36.5 143,-36.5 143,-0.5 74,-0.5"/>
<text text-anchor="middle" x="108.5" y="-14.8" font-family="Times New Roman,serif" font-size="14.00">fc: Dense</text>
</g>
<!-- 2727223746120&#45;&gt;2727223746232 -->
<g id="edge7" class="edge"><title>2727223746120&#45;&gt;2727223746232</title>
<path fill="none" stroke="black" d="M108.5,-73.3129C108.5,-65.2895 108.5,-55.5475 108.5,-46.5691"/>
<polygon fill="black" stroke="black" points="112,-46.5288 108.5,-36.5288 105,-46.5289 112,-46.5288"/>
</g>
</g>
</svg>
